<svg width="32" height="32" viewBox="0 0 32 32" fill="none" xmlns="http://www.w3.org/2000/svg">
<path d="M15.812 31.624C24.5447 31.624 31.624 24.5447 31.624 15.812C31.624 7.07927 24.5447 0 15.812 0C7.07927 0 0 7.07927 0 15.812C0 24.5447 7.07927 31.624 15.812 31.624Z" fill="#FBBF67"/>
<path d="M22.3216 24.0908C22.3216 24.6719 21.4896 25.1431 20.4612 25.1431H11.162C10.1336 25.1431 9.30151 24.6719 9.30151 24.0908C9.30151 23.5093 10.1336 23.0371 11.162 23.0371H20.4612C21.4896 23.0371 22.3216 23.5093 22.3216 24.0908Z" fill="#633C17"/>
<path d="M12.6949 13.5634C12.6949 14.1444 12.1129 14.6171 11.3922 14.6171H4.88088C4.16116 14.6171 3.57812 14.1444 3.57812 13.5634C3.57812 12.9823 4.16116 12.5106 4.88088 12.5106H11.3922C12.1129 12.5106 12.6949 12.9823 12.6949 13.5634Z" fill="#633C17"/>
<path d="M27.724 13.5634C27.724 14.1444 27.1419 14.6171 26.4212 14.6171H19.9099C19.1902 14.6171 18.6072 14.1444 18.6072 13.5634C18.6072 12.9823 19.1902 12.5106 19.9099 12.5106H26.4212C27.1414 12.5106 27.7235 12.9823 27.7235 13.5634" fill="#633C17"/>
</svg>
