<svg width="32" height="32" viewBox="0 0 32 32" fill="none" xmlns="http://www.w3.org/2000/svg">
<path d="M16 32C24.8366 32 32 24.8366 32 16C32 7.16344 24.8366 0 16 0C7.16344 0 0 7.16344 0 16C0 24.8366 7.16344 32 16 32Z" fill="#FBBF67"/>
<path d="M26.0526 19.6979C26.0526 25.2032 21.5863 29.6705 16.079 29.6705C10.5762 29.6705 6.1084 25.2032 6.1084 19.6979" fill="#633D19"/>
<path d="M24.3468 20.6995C24.3468 22.8985 20.5705 24.6837 15.915 24.6837C11.2636 24.6837 7.48633 22.8985 7.48633 20.6995" fill="white"/>
<path d="M11.3111 6.87316C9.36912 8.94468 7.18834 10.5341 4.56897 11.644C3.97154 11.8974 4.43391 12.7872 5.02476 12.5368C7.72051 11.3946 9.98173 9.75103 11.9804 7.61931C12.42 7.15139 11.7523 6.40321 11.3111 6.87316Z" fill="#633D19"/>
<path d="M4.81739 12.9577C4.39854 12.9577 4.01863 12.637 3.93264 12.2111C3.8522 11.8165 4.04443 11.4584 4.42181 11.2985C6.90611 10.2463 9.0697 8.71455 11.0385 6.61673C11.4488 6.18016 12.1858 6.35317 12.4246 6.90456C12.4959 7.06501 12.518 7.24303 12.488 7.41604C12.458 7.58906 12.3773 7.74926 12.2561 7.87633C10.1578 10.1148 7.84145 11.7518 5.17403 12.8829C5.06207 12.9314 4.94146 12.9569 4.81942 12.9577H4.81739ZM11.6284 7.10033C9.54622 9.30641 7.29967 10.8963 4.71774 11.9905C4.67676 12.1645 4.77237 12.2374 4.88012 12.1909C7.45042 11.1017 9.68331 9.52191 11.7088 7.36237C11.7285 7.34062 11.774 7.29155 11.7361 7.20404C11.7068 7.13625 11.6496 7.10033 11.6284 7.10033Z" fill="#633D19"/>
<path d="M21.1427 6.87316C23.0847 8.94468 25.2655 10.5341 27.8849 11.644C28.4823 11.8974 28.0204 12.7872 27.4291 12.5368C24.7333 11.3946 22.4721 9.75103 20.4734 7.61931C20.0333 7.15139 20.7011 6.40321 21.1427 6.87316Z" fill="#633D19"/>
<path d="M27.6343 12.9578C27.5125 12.9572 27.392 12.9319 27.2802 12.8834C24.6118 11.7518 22.2954 10.1153 20.1981 7.87688C20.077 7.74974 19.9964 7.58954 19.9664 7.41655C19.9364 7.24357 19.9584 7.06558 20.0296 6.90511C20.2689 6.35422 21.0049 6.1797 21.4157 6.61727C23.383 8.71459 25.5461 10.2469 28.0324 11.2991C28.4103 11.4584 28.6025 11.8171 28.5221 12.2116C28.4361 12.6366 28.0562 12.9578 27.6373 12.9578H27.6343ZM20.8244 7.1201C20.7803 7.1201 20.7424 7.15349 20.7206 7.20458C20.6827 7.2926 20.7287 7.34167 20.748 7.36292C22.7714 9.52245 25.0063 11.1023 27.5766 12.1914L27.6373 12.2061C27.7077 12.2061 27.7724 12.1297 27.7861 12.0609C25.1571 10.8964 22.91 9.30645 20.8694 7.13022C20.8551 7.12409 20.8399 7.12066 20.8244 7.1201Z" fill="#633D19"/>
<path d="M18.0376 15.6257C18.0376 16.7842 20.1491 15.4866 22.0132 15.4866C23.8783 15.4866 25.9893 16.7836 25.9893 15.6257C25.9893 14.4678 23.8778 13.2168 22.0132 13.2168C20.1491 13.2168 18.0376 14.4678 18.0376 15.6257Z" fill="#633D19"/>
<path d="M6.01221 15.6257C6.01221 16.7842 8.12369 15.4866 9.9883 15.4866C11.8529 15.4866 13.9644 16.7836 13.9644 15.6257C13.9644 14.4678 11.8529 13.2168 9.9883 13.2168C8.12369 13.2168 6.01221 14.4678 6.01221 15.6257Z" fill="#633D19"/>
<path d="M1.62835 19.0908C0.305004 21.011 0.512409 23.4483 2.09222 24.5394C3.67204 25.6275 6.02482 24.9563 7.34867 23.0355C8.67252 21.1147 10.6555 15.5001 9.07569 14.4105C7.49537 13.3219 2.94967 17.1725 1.62835 19.0913" fill="#58C5E8"/>
<path d="M30.5313 19.0751C31.8567 20.9958 31.6473 23.4326 30.0674 24.5237C28.4876 25.6119 26.1364 24.9406 24.8105 23.0198C23.4872 21.0995 21.5042 15.485 23.084 14.3948C24.6643 13.3067 29.21 17.1578 30.5313 19.0756" fill="#58C5E8"/>
</svg>
