<svg width="13" height="13" viewBox="0 0 13 13" fill="none" xmlns="http://www.w3.org/2000/svg">
<path d="M12.0922 7.00037C12.3547 6.68818 12.5 6.30568 12.5 5.90771C12.5 5.2763 12.1078 4.67864 11.4766 4.34536C11.3141 4.25957 11.129 4.21442 10.9406 4.21458H7.19375L7.2875 2.48629C7.30938 2.06863 7.14531 1.67207 6.82656 1.36972C6.67013 1.2207 6.48141 1.10213 6.27206 1.02135C6.0627 0.94056 5.83716 0.899272 5.60938 0.900035C4.79688 0.900035 4.07812 1.39222 3.8625 2.09676L2.52031 6.47021H2.51562V12.489H9.89531C10.0391 12.489 10.1797 12.4637 10.3094 12.413C11.0531 12.1276 11.5328 11.4737 11.5328 10.748C11.5328 10.5709 11.5047 10.3965 11.4484 10.2277C11.7109 9.91554 11.8562 9.53304 11.8562 9.13507C11.8562 8.95788 11.8281 8.7835 11.7719 8.61475C12.0344 8.30256 12.1797 7.92006 12.1797 7.52209C12.1766 7.3449 12.1484 7.16912 12.0922 7.00037ZM0 6.92021V12.039C0 12.2879 0.223437 12.489 0.5 12.489H1.51562V6.47021H0.5C0.223437 6.47021 0 6.67131 0 6.92021Z" fill="black" fill-opacity="0.1"/>
</svg>
