<svg width="13" height="13" viewBox="0 0 13 13" fill="none" xmlns="http://www.w3.org/2000/svg">
<path d="M0.407814 6.18861C0.145314 6.5008 1.47876e-06 6.8833 1.4401e-06 7.28127C1.37877e-06 7.91267 0.392188 8.51033 1.02344 8.84361C1.18595 8.9294 1.37097 8.97455 1.55938 8.97439L5.30625 8.97439L5.2125 10.7027C5.19063 11.1203 5.35469 11.5169 5.67344 11.8192C5.82987 11.9683 6.01859 12.0868 6.22794 12.1676C6.4373 12.2484 6.66284 12.2897 6.89063 12.2889C7.70313 12.2889 8.42188 11.7967 8.6375 11.0922L9.97969 6.71877L9.98438 6.71877L9.98438 0.700013L2.60469 0.700012C2.46094 0.700012 2.32031 0.725325 2.19063 0.775951C1.44688 1.06142 0.96719 1.71533 0.96719 2.44095C0.96719 2.61814 0.995314 2.79251 1.05156 2.96126C0.789064 3.27345 0.643752 3.65595 0.643752 4.05392C0.643752 4.23111 0.671876 4.40548 0.728126 4.57423C0.465626 4.88642 0.320314 5.26892 0.320314 5.66689C0.323439 5.84408 0.351563 6.01986 0.407814 6.18861ZM12.5 6.26877L12.5 1.15001C12.5 0.901107 12.2766 0.700013 12 0.700013L10.9844 0.700013L10.9844 6.71877L12 6.71877C12.2766 6.71877 12.5 6.51767 12.5 6.26877Z" fill="black" fill-opacity="0.1"/>
</svg>
